<svg xmlns="http://www.w3.org/2000/svg" width="360" height="402" viewBox="0 0 680 760" role="img"><defs><pattern id="dith" width="4" height="4" patternUnits="userSpaceOnUse"><rect width="4" height="4" fill="#1c180f" fill-opacity="0"/><rect width="2" height="2" fill="#1c180f"/><rect x="2" y="2" width="2" height="2" fill="#1c180f"/></pattern></defs><style>.ttl{font-family:"Arial Black",Impact,sans-serif;font-weight:bold}.lbl{font-family:Arial,Helvetica,sans-serif}.mono{font-family:"Courier New",monospace}</style><rect x="139" y="76" width="440" height="640" fill="#352f24"/><rect x="139" y="76" width="440" height="640" fill="url(#dith)" opacity="0.45"/><rect x="125" y="60" width="440" height="640" fill="#c9bd9a"/><rect x="125" y="60" width="440" height="640" fill="url(#dith)" opacity="0.07"/><rect x="148" y="83" width="90" height="90" fill="url(#dith)" opacity="0.32"/><rect x="452" y="83" width="90" height="90" fill="url(#dith)" opacity="0.32"/><rect x="148" y="587" width="90" height="90" fill="url(#dith)" opacity="0.32"/><rect x="452" y="587" width="90" height="90" fill="url(#dith)" opacity="0.32"/><rect x="138" y="73" width="414" height="614" fill="none" stroke="#211e17" stroke-width="3"/><rect x="148" y="83" width="394" height="594" fill="none" stroke="#211e17" stroke-width="1.5"/><g transform="translate(154.6,92.6) scale(0.950)" fill="#2a2419" opacity="1.00"><path d="M12 3 C9 8 3 11 3 16 C3 19 6 20 8 19 C9 18.5 9.5 18 10 17 C9.5 20 9 22 7 23 L17 23 C15 22 14.5 20 14 17 C14.5 18 15 18.5 16 19 C18 20 21 19 21 16 C21 11 15 8 12 3 Z"/></g><g transform="translate(515.6,92.6) scale(0.950)" fill="#2a2419" opacity="1.00"><path d="M12 21 C12 21 3 14 3 8 C3 5 5 3 8 3 C10 3 11.5 4.5 12 6 C12.5 4.5 14 3 16 3 C19 3 21 5 21 8 C21 14 12 21 12 21 Z"/></g><g transform="translate(154.6,648.6) scale(0.950)" fill="#2a2419" opacity="1.00"><path d="M12 3 C9.8 3 8 4.8 8 7 C8 8.2 8.6 9.3 9.4 10 C7.8 9.4 6 9.8 6 12 C6 14.2 7.8 16 10 16 C10.7 16 11.4 15.8 12 15.4 C11.6 18 10.8 20 9 22 L15 22 C13.2 20 12.4 18 12 15.4 C12.6 15.8 13.3 16 14 16 C16.2 16 18 14.2 18 12 C18 9.8 16.2 9.4 14.6 10 C15.4 9.3 16 8.2 16 7 C16 4.8 14.2 3 12 3 Z"/></g><g transform="translate(515.6,648.6) scale(0.950)" fill="#2a2419" opacity="1.00"><path d="M12 2 L21 12 L12 22 L3 12 Z"/></g><text x="345" y="146" text-anchor="middle" class="ttl" font-size="27" letter-spacing="3" fill="#211e17">HOLDEM' STARES</text><line x1="195" y1="164" x2="495" y2="164" stroke="#211e17" stroke-width="2"/><text x="345" y="188" text-anchor="middle" class="lbl" font-size="13" letter-spacing="3" fill="#3a3529">TEXAS HOLD'EM &#183; MOBILE</text><text x="345" y="214" text-anchor="middle" class="lbl" font-size="17" letter-spacing="6" fill="#5d6043">&#12509;&#12540;&#12459;&#12540;</text><circle cx="345" cy="382" r="120" fill="none" stroke="#211e17" stroke-width="3"/><circle cx="345" cy="382" r="112" fill="none" stroke="#211e17" stroke-width="1"/><circle cx="345" cy="382" r="78" fill="none" stroke="#211e17" stroke-width="1.5"/><text x="345" y="294" text-anchor="middle" class="lbl" font-size="12" letter-spacing="3" fill="#211e17">PLAY CASUALLY</text><text x="345" y="478" text-anchor="middle" class="lbl" font-size="12" letter-spacing="3" fill="#211e17">&#9733; NOT SERIOUSLY &#9733;</text><text x="205" y="390" text-anchor="middle" class="lbl" font-size="18" fill="#5d6043">&#9733;</text><text x="485" y="390" text-anchor="middle" class="lbl" font-size="18" fill="#5d6043">&#9733;</text><g transform="translate(306.6,343.6) scale(3.2)" fill="#2a2419"><path d="M12 3 C9 8 3 11 3 16 C3 19 6 20 8 19 C9 18.5 9.5 18 10 17 C9.5 20 9 22 7 23 L17 23 C15 22 14.5 20 14 17 C14.5 18 15 18.5 16 19 C18 20 21 19 21 16 C21 11 15 8 12 3 Z"/></g><text x="345" y="545" text-anchor="middle" class="ttl" font-size="22" letter-spacing="3" fill="#211e17">52 + 2 JOKERS</text><text x="345" y="569" text-anchor="middle" class="lbl" font-size="12" letter-spacing="2" fill="#3a3529">54 CARDS &#183; POKER SIZE</text><line x1="170" y1="600" x2="520" y2="600" stroke="#3a3529" stroke-width="1"/><text x="170" y="625" class="mono" font-size="12" fill="#3a3529">HARU. JP-1999-03</text><g><rect x="365" y="612" width="1" height="30" fill="#211e17"/><rect x="368" y="612" width="2" height="30" fill="#211e17"/><rect x="373" y="612" width="3" height="30" fill="#211e17"/><rect x="378" y="612" width="3" height="30" fill="#211e17"/><rect x="383" y="612" width="2" height="30" fill="#211e17"/><rect x="388" y="612" width="3" height="30" fill="#211e17"/><rect x="393" y="612" width="1" height="30" fill="#211e17"/><rect x="397" y="612" width="3" height="30" fill="#211e17"/><rect x="403" y="612" width="2" height="30" fill="#211e17"/><rect x="407" y="612" width="1" height="30" fill="#211e17"/><rect x="410" y="612" width="3" height="30" fill="#211e17"/><rect x="416" y="612" width="3" height="30" fill="#211e17"/><rect x="421" y="612" width="3" height="30" fill="#211e17"/><rect x="426" y="612" width="1" height="30" fill="#211e17"/><rect x="429" y="612" width="2" height="30" fill="#211e17"/><rect x="433" y="612" width="2" height="30" fill="#211e17"/><rect x="438" y="612" width="3" height="30" fill="#211e17"/><rect x="444" y="612" width="3" height="30" fill="#211e17"/><rect x="450" y="612" width="2" height="30" fill="#211e17"/><rect x="455" y="612" width="1" height="30" fill="#211e17"/><rect x="459" y="612" width="1" height="30" fill="#211e17"/><rect x="462" y="612" width="1" height="30" fill="#211e17"/><rect x="466" y="612" width="1" height="30" fill="#211e17"/><rect x="470" y="612" width="3" height="30" fill="#211e17"/><rect x="476" y="612" width="3" height="30" fill="#211e17"/><rect x="482" y="612" width="2" height="30" fill="#211e17"/><rect x="487" y="612" width="3" height="30" fill="#211e17"/><rect x="493" y="612" width="3" height="30" fill="#211e17"/><rect x="499" y="612" width="3" height="30" fill="#211e17"/><rect x="504" y="612" width="2" height="30" fill="#211e17"/></g><text x="345" y="670" text-anchor="middle" class="lbl" font-size="11" letter-spacing="2" fill="#5d6043">GUIDED &#183; ENTRY PLAYER SUPPORT</text><g transform="rotate(-12 255 500)"><path d="M205 476 L188 500 L205 524 L332 524 L332 476 Z" fill="#ece2c6" stroke="#a83a36" stroke-width="3"/><circle cx="204" cy="500" r="4" fill="none" stroke="#a83a36" stroke-width="2"/><text x="272" y="497" text-anchor="middle" class="lbl" font-size="13" letter-spacing="1" fill="#6b5a3a">2.99 EUR</text><line x1="246" y1="493" x2="316" y2="493" stroke="#a83a36" stroke-width="2"/><text x="272" y="518" text-anchor="middle" class="ttl" font-size="19" letter-spacing="2" fill="#a83a36">FREE</text></g><line x1="180" y1="262" x2="246" y2="252" stroke="#d8cda9" stroke-width="1" opacity="0.45"/><line x1="430" y1="522" x2="498" y2="514" stroke="#d8cda9" stroke-width="1" opacity="0.4"/></svg>