<svg xmlns="http://www.w3.org/2000/svg" width="360" height="504" viewBox="0 0 360 504" role="img"><defs><pattern id="dith" width="4" height="4" patternUnits="userSpaceOnUse"><rect width="4" height="4" fill="#1c180f" fill-opacity="0"/><rect width="2" height="2" fill="#1c180f"/><rect x="2" y="2" width="2" height="2" fill="#1c180f"/></pattern></defs><style>.ttl{font-family:"Arial Black",Impact,sans-serif;font-weight:bold}.lbl{font-family:Arial,Helvetica,sans-serif}.mono{font-family:"Courier New",monospace}</style><rect x="6" y="6" width="348" height="492" rx="22" fill="#c9bd9a" stroke="#211e17" stroke-width="2.5"/><g transform="translate(34.00,42.00) scale(0.500)"><path d="M12 3 C9 8 3 11 3 16 C3 19 6 20 8 19 C9 18.5 9.5 18 10 17 C9.5 20 9 22 7 23 L17 23 C15 22 14.5 20 14 17 C14.5 18 15 18.5 16 19 C18 20 21 19 21 16 C21 11 15 8 12 3 Z" fill="#a89878" opacity="0.70"/></g><g transform="translate(90.00,42.00) scale(0.500)"><path d="M12 3 C9 8 3 11 3 16 C3 19 6 20 8 19 C9 18.5 9.5 18 10 17 C9.5 20 9 22 7 23 L17 23 C15 22 14.5 20 14 17 C14.5 18 15 18.5 16 19 C18 20 21 19 21 16 C21 11 15 8 12 3 Z" fill="#a89878" opacity="0.70"/></g><g transform="translate(146.00,42.00) scale(0.500)"><path d="M12 3 C9 8 3 11 3 16 C3 19 6 20 8 19 C9 18.5 9.5 18 10 17 C9.5 20 9 22 7 23 L17 23 C15 22 14.5 20 14 17 C14.5 18 15 18.5 16 19 C18 20 21 19 21 16 C21 11 15 8 12 3 Z" fill="#a89878" opacity="0.70"/></g><g transform="translate(202.00,42.00) scale(0.500)"><path d="M12 3 C9 8 3 11 3 16 C3 19 6 20 8 19 C9 18.5 9.5 18 10 17 C9.5 20 9 22 7 23 L17 23 C15 22 14.5 20 14 17 C14.5 18 15 18.5 16 19 C18 20 21 19 21 16 C21 11 15 8 12 3 Z" fill="#a89878" opacity="0.70"/></g><g transform="translate(258.00,42.00) scale(0.500)"><path d="M12 3 C9 8 3 11 3 16 C3 19 6 20 8 19 C9 18.5 9.5 18 10 17 C9.5 20 9 22 7 23 L17 23 C15 22 14.5 20 14 17 C14.5 18 15 18.5 16 19 C18 20 21 19 21 16 C21 11 15 8 12 3 Z" fill="#a89878" opacity="0.70"/></g><g transform="translate(314.00,42.00) scale(0.500)"><path d="M12 3 C9 8 3 11 3 16 C3 19 6 20 8 19 C9 18.5 9.5 18 10 17 C9.5 20 9 22 7 23 L17 23 C15 22 14.5 20 14 17 C14.5 18 15 18.5 16 19 C18 20 21 19 21 16 C21 11 15 8 12 3 Z" fill="#a89878" opacity="0.70"/></g><g transform="translate(62.00,92.00) scale(0.500)"><path d="M12 3 C9 8 3 11 3 16 C3 19 6 20 8 19 C9 18.5 9.5 18 10 17 C9.5 20 9 22 7 23 L17 23 C15 22 14.5 20 14 17 C14.5 18 15 18.5 16 19 C18 20 21 19 21 16 C21 11 15 8 12 3 Z" fill="#a89878" opacity="0.70"/></g><g transform="translate(118.00,92.00) scale(0.500)"><path d="M12 3 C9 8 3 11 3 16 C3 19 6 20 8 19 C9 18.5 9.5 18 10 17 C9.5 20 9 22 7 23 L17 23 C15 22 14.5 20 14 17 C14.5 18 15 18.5 16 19 C18 20 21 19 21 16 C21 11 15 8 12 3 Z" fill="#a89878" opacity="0.70"/></g><g transform="translate(174.00,92.00) scale(0.500)"><path d="M12 3 C9 8 3 11 3 16 C3 19 6 20 8 19 C9 18.5 9.5 18 10 17 C9.5 20 9 22 7 23 L17 23 C15 22 14.5 20 14 17 C14.5 18 15 18.5 16 19 C18 20 21 19 21 16 C21 11 15 8 12 3 Z" fill="#a89878" opacity="0.70"/></g><g transform="translate(230.00,92.00) scale(0.500)"><path d="M12 3 C9 8 3 11 3 16 C3 19 6 20 8 19 C9 18.5 9.5 18 10 17 C9.5 20 9 22 7 23 L17 23 C15 22 14.5 20 14 17 C14.5 18 15 18.5 16 19 C18 20 21 19 21 16 C21 11 15 8 12 3 Z" fill="#a89878" opacity="0.70"/></g><g transform="translate(286.00,92.00) scale(0.500)"><path d="M12 3 C9 8 3 11 3 16 C3 19 6 20 8 19 C9 18.5 9.5 18 10 17 C9.5 20 9 22 7 23 L17 23 C15 22 14.5 20 14 17 C14.5 18 15 18.5 16 19 C18 20 21 19 21 16 C21 11 15 8 12 3 Z" fill="#a89878" opacity="0.70"/></g><g transform="translate(34.00,142.00) scale(0.500)"><path d="M12 3 C9 8 3 11 3 16 C3 19 6 20 8 19 C9 18.5 9.5 18 10 17 C9.5 20 9 22 7 23 L17 23 C15 22 14.5 20 14 17 C14.5 18 15 18.5 16 19 C18 20 21 19 21 16 C21 11 15 8 12 3 Z" fill="#a89878" opacity="0.70"/></g><g transform="translate(90.00,142.00) scale(0.500)"><path d="M12 3 C9 8 3 11 3 16 C3 19 6 20 8 19 C9 18.5 9.5 18 10 17 C9.5 20 9 22 7 23 L17 23 C15 22 14.5 20 14 17 C14.5 18 15 18.5 16 19 C18 20 21 19 21 16 C21 11 15 8 12 3 Z" fill="#a89878" opacity="0.70"/></g><g transform="translate(146.00,142.00) scale(0.500)"><path d="M12 3 C9 8 3 11 3 16 C3 19 6 20 8 19 C9 18.5 9.5 18 10 17 C9.5 20 9 22 7 23 L17 23 C15 22 14.5 20 14 17 C14.5 18 15 18.5 16 19 C18 20 21 19 21 16 C21 11 15 8 12 3 Z" fill="#a89878" opacity="0.70"/></g><g transform="translate(202.00,142.00) scale(0.500)"><path d="M12 3 C9 8 3 11 3 16 C3 19 6 20 8 19 C9 18.5 9.5 18 10 17 C9.5 20 9 22 7 23 L17 23 C15 22 14.5 20 14 17 C14.5 18 15 18.5 16 19 C18 20 21 19 21 16 C21 11 15 8 12 3 Z" fill="#a89878" opacity="0.70"/></g><g transform="translate(258.00,142.00) scale(0.500)"><path d="M12 3 C9 8 3 11 3 16 C3 19 6 20 8 19 C9 18.5 9.5 18 10 17 C9.5 20 9 22 7 23 L17 23 C15 22 14.5 20 14 17 C14.5 18 15 18.5 16 19 C18 20 21 19 21 16 C21 11 15 8 12 3 Z" fill="#a89878" opacity="0.70"/></g><g transform="translate(314.00,142.00) scale(0.500)"><path d="M12 3 C9 8 3 11 3 16 C3 19 6 20 8 19 C9 18.5 9.5 18 10 17 C9.5 20 9 22 7 23 L17 23 C15 22 14.5 20 14 17 C14.5 18 15 18.5 16 19 C18 20 21 19 21 16 C21 11 15 8 12 3 Z" fill="#a89878" opacity="0.70"/></g><g transform="translate(62.00,192.00) scale(0.500)"><path d="M12 3 C9 8 3 11 3 16 C3 19 6 20 8 19 C9 18.5 9.5 18 10 17 C9.5 20 9 22 7 23 L17 23 C15 22 14.5 20 14 17 C14.5 18 15 18.5 16 19 C18 20 21 19 21 16 C21 11 15 8 12 3 Z" fill="#a89878" opacity="0.70"/></g><g transform="translate(118.00,192.00) scale(0.500)"><path d="M12 3 C9 8 3 11 3 16 C3 19 6 20 8 19 C9 18.5 9.5 18 10 17 C9.5 20 9 22 7 23 L17 23 C15 22 14.5 20 14 17 C14.5 18 15 18.5 16 19 C18 20 21 19 21 16 C21 11 15 8 12 3 Z" fill="#a89878" opacity="0.70"/></g><g transform="translate(174.00,192.00) scale(0.500)"><path d="M12 3 C9 8 3 11 3 16 C3 19 6 20 8 19 C9 18.5 9.5 18 10 17 C9.5 20 9 22 7 23 L17 23 C15 22 14.5 20 14 17 C14.5 18 15 18.5 16 19 C18 20 21 19 21 16 C21 11 15 8 12 3 Z" fill="#a89878" opacity="0.70"/></g><g transform="translate(230.00,192.00) scale(0.500)"><path d="M12 3 C9 8 3 11 3 16 C3 19 6 20 8 19 C9 18.5 9.5 18 10 17 C9.5 20 9 22 7 23 L17 23 C15 22 14.5 20 14 17 C14.5 18 15 18.5 16 19 C18 20 21 19 21 16 C21 11 15 8 12 3 Z" fill="#a89878" opacity="0.70"/></g><g transform="translate(286.00,192.00) scale(0.500)"><path d="M12 3 C9 8 3 11 3 16 C3 19 6 20 8 19 C9 18.5 9.5 18 10 17 C9.5 20 9 22 7 23 L17 23 C15 22 14.5 20 14 17 C14.5 18 15 18.5 16 19 C18 20 21 19 21 16 C21 11 15 8 12 3 Z" fill="#a89878" opacity="0.70"/></g><g transform="translate(34.00,242.00) scale(0.500)"><path d="M12 3 C9 8 3 11 3 16 C3 19 6 20 8 19 C9 18.5 9.5 18 10 17 C9.5 20 9 22 7 23 L17 23 C15 22 14.5 20 14 17 C14.5 18 15 18.5 16 19 C18 20 21 19 21 16 C21 11 15 8 12 3 Z" fill="#a89878" opacity="0.70"/></g><g transform="translate(90.00,242.00) scale(0.500)"><path d="M12 3 C9 8 3 11 3 16 C3 19 6 20 8 19 C9 18.5 9.5 18 10 17 C9.5 20 9 22 7 23 L17 23 C15 22 14.5 20 14 17 C14.5 18 15 18.5 16 19 C18 20 21 19 21 16 C21 11 15 8 12 3 Z" fill="#a89878" opacity="0.70"/></g><g transform="translate(146.00,242.00) scale(0.500)"><path d="M12 3 C9 8 3 11 3 16 C3 19 6 20 8 19 C9 18.5 9.5 18 10 17 C9.5 20 9 22 7 23 L17 23 C15 22 14.5 20 14 17 C14.5 18 15 18.5 16 19 C18 20 21 19 21 16 C21 11 15 8 12 3 Z" fill="#a89878" opacity="0.70"/></g><g transform="translate(202.00,242.00) scale(0.500)"><path d="M12 3 C9 8 3 11 3 16 C3 19 6 20 8 19 C9 18.5 9.5 18 10 17 C9.5 20 9 22 7 23 L17 23 C15 22 14.5 20 14 17 C14.5 18 15 18.5 16 19 C18 20 21 19 21 16 C21 11 15 8 12 3 Z" fill="#a89878" opacity="0.70"/></g><g transform="translate(258.00,242.00) scale(0.500)"><path d="M12 3 C9 8 3 11 3 16 C3 19 6 20 8 19 C9 18.5 9.5 18 10 17 C9.5 20 9 22 7 23 L17 23 C15 22 14.5 20 14 17 C14.5 18 15 18.5 16 19 C18 20 21 19 21 16 C21 11 15 8 12 3 Z" fill="#a89878" opacity="0.70"/></g><g transform="translate(314.00,242.00) scale(0.500)"><path d="M12 3 C9 8 3 11 3 16 C3 19 6 20 8 19 C9 18.5 9.5 18 10 17 C9.5 20 9 22 7 23 L17 23 C15 22 14.5 20 14 17 C14.5 18 15 18.5 16 19 C18 20 21 19 21 16 C21 11 15 8 12 3 Z" fill="#a89878" opacity="0.70"/></g><g transform="translate(62.00,292.00) scale(0.500)"><path d="M12 3 C9 8 3 11 3 16 C3 19 6 20 8 19 C9 18.5 9.5 18 10 17 C9.5 20 9 22 7 23 L17 23 C15 22 14.5 20 14 17 C14.5 18 15 18.5 16 19 C18 20 21 19 21 16 C21 11 15 8 12 3 Z" fill="#a89878" opacity="0.70"/></g><g transform="translate(118.00,292.00) scale(0.500)"><path d="M12 3 C9 8 3 11 3 16 C3 19 6 20 8 19 C9 18.5 9.5 18 10 17 C9.5 20 9 22 7 23 L17 23 C15 22 14.5 20 14 17 C14.5 18 15 18.5 16 19 C18 20 21 19 21 16 C21 11 15 8 12 3 Z" fill="#a89878" opacity="0.70"/></g><g transform="translate(174.00,292.00) scale(0.500)"><path d="M12 3 C9 8 3 11 3 16 C3 19 6 20 8 19 C9 18.5 9.5 18 10 17 C9.5 20 9 22 7 23 L17 23 C15 22 14.5 20 14 17 C14.5 18 15 18.5 16 19 C18 20 21 19 21 16 C21 11 15 8 12 3 Z" fill="#a89878" opacity="0.70"/></g><g transform="translate(230.00,292.00) scale(0.500)"><path d="M12 3 C9 8 3 11 3 16 C3 19 6 20 8 19 C9 18.5 9.5 18 10 17 C9.5 20 9 22 7 23 L17 23 C15 22 14.5 20 14 17 C14.5 18 15 18.5 16 19 C18 20 21 19 21 16 C21 11 15 8 12 3 Z" fill="#a89878" opacity="0.70"/></g><g transform="translate(286.00,292.00) scale(0.500)"><path d="M12 3 C9 8 3 11 3 16 C3 19 6 20 8 19 C9 18.5 9.5 18 10 17 C9.5 20 9 22 7 23 L17 23 C15 22 14.5 20 14 17 C14.5 18 15 18.5 16 19 C18 20 21 19 21 16 C21 11 15 8 12 3 Z" fill="#a89878" opacity="0.70"/></g><g transform="translate(34.00,342.00) scale(0.500)"><path d="M12 3 C9 8 3 11 3 16 C3 19 6 20 8 19 C9 18.5 9.5 18 10 17 C9.5 20 9 22 7 23 L17 23 C15 22 14.5 20 14 17 C14.5 18 15 18.5 16 19 C18 20 21 19 21 16 C21 11 15 8 12 3 Z" fill="#a89878" opacity="0.70"/></g><g transform="translate(90.00,342.00) scale(0.500)"><path d="M12 3 C9 8 3 11 3 16 C3 19 6 20 8 19 C9 18.5 9.5 18 10 17 C9.5 20 9 22 7 23 L17 23 C15 22 14.5 20 14 17 C14.5 18 15 18.5 16 19 C18 20 21 19 21 16 C21 11 15 8 12 3 Z" fill="#a89878" opacity="0.70"/></g><g transform="translate(146.00,342.00) scale(0.500)"><path d="M12 3 C9 8 3 11 3 16 C3 19 6 20 8 19 C9 18.5 9.5 18 10 17 C9.5 20 9 22 7 23 L17 23 C15 22 14.5 20 14 17 C14.5 18 15 18.5 16 19 C18 20 21 19 21 16 C21 11 15 8 12 3 Z" fill="#a89878" opacity="0.70"/></g><g transform="translate(202.00,342.00) scale(0.500)"><path d="M12 3 C9 8 3 11 3 16 C3 19 6 20 8 19 C9 18.5 9.5 18 10 17 C9.5 20 9 22 7 23 L17 23 C15 22 14.5 20 14 17 C14.5 18 15 18.5 16 19 C18 20 21 19 21 16 C21 11 15 8 12 3 Z" fill="#a89878" opacity="0.70"/></g><g transform="translate(258.00,342.00) scale(0.500)"><path d="M12 3 C9 8 3 11 3 16 C3 19 6 20 8 19 C9 18.5 9.5 18 10 17 C9.5 20 9 22 7 23 L17 23 C15 22 14.5 20 14 17 C14.5 18 15 18.5 16 19 C18 20 21 19 21 16 C21 11 15 8 12 3 Z" fill="#a89878" opacity="0.70"/></g><g transform="translate(314.00,342.00) scale(0.500)"><path d="M12 3 C9 8 3 11 3 16 C3 19 6 20 8 19 C9 18.5 9.5 18 10 17 C9.5 20 9 22 7 23 L17 23 C15 22 14.5 20 14 17 C14.5 18 15 18.5 16 19 C18 20 21 19 21 16 C21 11 15 8 12 3 Z" fill="#a89878" opacity="0.70"/></g><g transform="translate(62.00,392.00) scale(0.500)"><path d="M12 3 C9 8 3 11 3 16 C3 19 6 20 8 19 C9 18.5 9.5 18 10 17 C9.5 20 9 22 7 23 L17 23 C15 22 14.5 20 14 17 C14.5 18 15 18.5 16 19 C18 20 21 19 21 16 C21 11 15 8 12 3 Z" fill="#a89878" opacity="0.70"/></g><g transform="translate(118.00,392.00) scale(0.500)"><path d="M12 3 C9 8 3 11 3 16 C3 19 6 20 8 19 C9 18.5 9.5 18 10 17 C9.5 20 9 22 7 23 L17 23 C15 22 14.5 20 14 17 C14.5 18 15 18.5 16 19 C18 20 21 19 21 16 C21 11 15 8 12 3 Z" fill="#a89878" opacity="0.70"/></g><g transform="translate(174.00,392.00) scale(0.500)"><path d="M12 3 C9 8 3 11 3 16 C3 19 6 20 8 19 C9 18.5 9.5 18 10 17 C9.5 20 9 22 7 23 L17 23 C15 22 14.5 20 14 17 C14.5 18 15 18.5 16 19 C18 20 21 19 21 16 C21 11 15 8 12 3 Z" fill="#a89878" opacity="0.70"/></g><g transform="translate(230.00,392.00) scale(0.500)"><path d="M12 3 C9 8 3 11 3 16 C3 19 6 20 8 19 C9 18.5 9.5 18 10 17 C9.5 20 9 22 7 23 L17 23 C15 22 14.5 20 14 17 C14.5 18 15 18.5 16 19 C18 20 21 19 21 16 C21 11 15 8 12 3 Z" fill="#a89878" opacity="0.70"/></g><g transform="translate(286.00,392.00) scale(0.500)"><path d="M12 3 C9 8 3 11 3 16 C3 19 6 20 8 19 C9 18.5 9.5 18 10 17 C9.5 20 9 22 7 23 L17 23 C15 22 14.5 20 14 17 C14.5 18 15 18.5 16 19 C18 20 21 19 21 16 C21 11 15 8 12 3 Z" fill="#a89878" opacity="0.70"/></g><g transform="translate(34.00,442.00) scale(0.500)"><path d="M12 3 C9 8 3 11 3 16 C3 19 6 20 8 19 C9 18.5 9.5 18 10 17 C9.5 20 9 22 7 23 L17 23 C15 22 14.5 20 14 17 C14.5 18 15 18.5 16 19 C18 20 21 19 21 16 C21 11 15 8 12 3 Z" fill="#a89878" opacity="0.70"/></g><g transform="translate(90.00,442.00) scale(0.500)"><path d="M12 3 C9 8 3 11 3 16 C3 19 6 20 8 19 C9 18.5 9.5 18 10 17 C9.5 20 9 22 7 23 L17 23 C15 22 14.5 20 14 17 C14.5 18 15 18.5 16 19 C18 20 21 19 21 16 C21 11 15 8 12 3 Z" fill="#a89878" opacity="0.70"/></g><g transform="translate(146.00,442.00) scale(0.500)"><path d="M12 3 C9 8 3 11 3 16 C3 19 6 20 8 19 C9 18.5 9.5 18 10 17 C9.5 20 9 22 7 23 L17 23 C15 22 14.5 20 14 17 C14.5 18 15 18.5 16 19 C18 20 21 19 21 16 C21 11 15 8 12 3 Z" fill="#a89878" opacity="0.70"/></g><g transform="translate(202.00,442.00) scale(0.500)"><path d="M12 3 C9 8 3 11 3 16 C3 19 6 20 8 19 C9 18.5 9.5 18 10 17 C9.5 20 9 22 7 23 L17 23 C15 22 14.5 20 14 17 C14.5 18 15 18.5 16 19 C18 20 21 19 21 16 C21 11 15 8 12 3 Z" fill="#a89878" opacity="0.70"/></g><g transform="translate(258.00,442.00) scale(0.500)"><path d="M12 3 C9 8 3 11 3 16 C3 19 6 20 8 19 C9 18.5 9.5 18 10 17 C9.5 20 9 22 7 23 L17 23 C15 22 14.5 20 14 17 C14.5 18 15 18.5 16 19 C18 20 21 19 21 16 C21 11 15 8 12 3 Z" fill="#a89878" opacity="0.70"/></g><g transform="translate(314.00,442.00) scale(0.500)"><path d="M12 3 C9 8 3 11 3 16 C3 19 6 20 8 19 C9 18.5 9.5 18 10 17 C9.5 20 9 22 7 23 L17 23 C15 22 14.5 20 14 17 C14.5 18 15 18.5 16 19 C18 20 21 19 21 16 C21 11 15 8 12 3 Z" fill="#a89878" opacity="0.70"/></g><rect x="6" y="6" width="348" height="492" rx="22" fill="url(#dith)" opacity="0.08"/><rect x="22" y="22" width="316" height="460" rx="14" fill="none" stroke="#211e17" stroke-width="1.4"/><text x="180" y="70" text-anchor="middle" class="ttl" font-size="20" letter-spacing="2" fill="#211e17">HOLDEM' STARES</text><circle cx="180" cy="252" r="84" fill="#d6cba8" stroke="#211e17" stroke-width="3"/><circle cx="180" cy="252" r="76" fill="none" stroke="#211e17" stroke-width="1"/><g transform="translate(120.00,192.00) scale(5.000)"><path d="M12 3 C9 8 3 11 3 16 C3 19 6 20 8 19 C9 18.5 9.5 18 10 17 C9.5 20 9 22 7 23 L17 23 C15 22 14.5 20 14 17 C14.5 18 15 18.5 16 19 C18 20 21 19 21 16 C21 11 15 8 12 3 Z" fill="#2a2419" opacity="1.00"/></g><text x="180" y="446" text-anchor="middle" class="lbl" font-size="20" letter-spacing="8" fill="#211e17">&#12509;&#12540;&#12459;&#12540;</text></svg>