<svg xmlns="http://www.w3.org/2000/svg" width="360" height="504" viewBox="0 0 360 504" role="img"><defs><pattern id="dith" width="4" height="4" patternUnits="userSpaceOnUse"><rect width="4" height="4" fill="#1c180f" fill-opacity="0"/><rect width="2" height="2" fill="#1c180f"/><rect x="2" y="2" width="2" height="2" fill="#1c180f"/></pattern></defs><style>.ttl{font-family:"Arial Black",Impact,sans-serif;font-weight:bold}.lbl{font-family:Arial,Helvetica,sans-serif}.mono{font-family:"Courier New",monospace}</style><rect x="10" y="10" width="340" height="484" rx="22" fill="#f0c486" stroke="#b9823c" stroke-width="3"/><rect x="10" y="10" width="340" height="484" rx="22" fill="url(#dith)" opacity="0.08"/><rect x="26" y="26" width="308" height="452" rx="14" fill="none" stroke="#5c3f15" stroke-width="1.5"/><rect x="33" y="33" width="294" height="438" rx="10" fill="none" stroke="#5c3f15" stroke-width="0.7"/><g transform="translate(43.6,45.6) scale(0.700)" fill="#5c3f15" opacity="0.45"><path d="M12 3 C9 8 3 11 3 16 C3 19 6 20 8 19 C9 18.5 9.5 18 10 17 C9.5 20 9 22 7 23 L17 23 C15 22 14.5 20 14 17 C14.5 18 15 18.5 16 19 C18 20 21 19 21 16 C21 11 15 8 12 3 Z"/></g><g transform="translate(299.6,45.6) scale(0.700)" fill="#5c3f15" opacity="0.45"><path d="M12 3 C9 8 3 11 3 16 C3 19 6 20 8 19 C9 18.5 9.5 18 10 17 C9.5 20 9 22 7 23 L17 23 C15 22 14.5 20 14 17 C14.5 18 15 18.5 16 19 C18 20 21 19 21 16 C21 11 15 8 12 3 Z"/></g><g transform="translate(43.6,441.6) scale(0.700)" fill="#5c3f15" opacity="0.45"><path d="M12 3 C9 8 3 11 3 16 C3 19 6 20 8 19 C9 18.5 9.5 18 10 17 C9.5 20 9 22 7 23 L17 23 C15 22 14.5 20 14 17 C14.5 18 15 18.5 16 19 C18 20 21 19 21 16 C21 11 15 8 12 3 Z"/></g><g transform="translate(299.6,441.6) scale(0.700)" fill="#5c3f15" opacity="0.45"><path d="M12 3 C9 8 3 11 3 16 C3 19 6 20 8 19 C9 18.5 9.5 18 10 17 C9.5 20 9 22 7 23 L17 23 C15 22 14.5 20 14 17 C14.5 18 15 18.5 16 19 C18 20 21 19 21 16 C21 11 15 8 12 3 Z"/></g><text x="180" y="64" text-anchor="middle" class="lbl" font-size="14" letter-spacing="3" fill="#5c3f15">ENTER</text><text x="180" y="92" text-anchor="middle" class="lbl" font-size="14" letter-spacing="3" fill="#5c3f15">ROOM CODE</text><text x="180" y="470" text-anchor="middle" class="lbl" font-size="16" letter-spacing="5" fill="#7d6a3f">&#12509;&#12540;&#12459;&#12540;</text></svg>