<svg xmlns="http://www.w3.org/2000/svg" width="360" height="504" viewBox="0 0 360 504" role="img"><defs><pattern id="dith" width="4" height="4" patternUnits="userSpaceOnUse"><rect width="4" height="4" fill="#1c180f" fill-opacity="0"/><rect width="2" height="2" fill="#1c180f"/><rect x="2" y="2" width="2" height="2" fill="#1c180f"/></pattern></defs><style>.ttl{font-family:"Arial Black",Impact,sans-serif;font-weight:bold}.lbl{font-family:Arial,Helvetica,sans-serif}.mono{font-family:"Courier New",monospace}</style><rect x="6" y="6" width="348" height="492" rx="26" fill="#f0c486" stroke="#b9823c" stroke-width="2"/><rect x="16" y="16" width="328" height="472" rx="20" fill="#8fc7e8" stroke="#16323f" stroke-width="2"/><g transform="translate(37.4,47.4) scale(0.550)" fill="#6ba6c8" opacity="0.55"><path d="M12 3 C9 8 3 11 3 16 C3 19 6 20 8 19 C9 18.5 9.5 18 10 17 C9.5 20 9 22 7 23 L17 23 C15 22 14.5 20 14 17 C14.5 18 15 18.5 16 19 C18 20 21 19 21 16 C21 11 15 8 12 3 Z"/></g><g transform="translate(87.4,47.4) scale(0.550)" fill="#6ba6c8" opacity="0.55"><path d="M12 3 C9 8 3 11 3 16 C3 19 6 20 8 19 C9 18.5 9.5 18 10 17 C9.5 20 9 22 7 23 L17 23 C15 22 14.5 20 14 17 C14.5 18 15 18.5 16 19 C18 20 21 19 21 16 C21 11 15 8 12 3 Z"/></g><g transform="translate(137.4,47.4) scale(0.550)" fill="#6ba6c8" opacity="0.55"><path d="M12 3 C9 8 3 11 3 16 C3 19 6 20 8 19 C9 18.5 9.5 18 10 17 C9.5 20 9 22 7 23 L17 23 C15 22 14.5 20 14 17 C14.5 18 15 18.5 16 19 C18 20 21 19 21 16 C21 11 15 8 12 3 Z"/></g><g transform="translate(187.4,47.4) scale(0.550)" fill="#6ba6c8" opacity="0.55"><path d="M12 3 C9 8 3 11 3 16 C3 19 6 20 8 19 C9 18.5 9.5 18 10 17 C9.5 20 9 22 7 23 L17 23 C15 22 14.5 20 14 17 C14.5 18 15 18.5 16 19 C18 20 21 19 21 16 C21 11 15 8 12 3 Z"/></g><g transform="translate(237.4,47.4) scale(0.550)" fill="#6ba6c8" opacity="0.55"><path d="M12 3 C9 8 3 11 3 16 C3 19 6 20 8 19 C9 18.5 9.5 18 10 17 C9.5 20 9 22 7 23 L17 23 C15 22 14.5 20 14 17 C14.5 18 15 18.5 16 19 C18 20 21 19 21 16 C21 11 15 8 12 3 Z"/></g><g transform="translate(287.4,47.4) scale(0.550)" fill="#6ba6c8" opacity="0.55"><path d="M12 3 C9 8 3 11 3 16 C3 19 6 20 8 19 C9 18.5 9.5 18 10 17 C9.5 20 9 22 7 23 L17 23 C15 22 14.5 20 14 17 C14.5 18 15 18.5 16 19 C18 20 21 19 21 16 C21 11 15 8 12 3 Z"/></g><g transform="translate(62.4,99.4) scale(0.550)" fill="#6ba6c8" opacity="0.55"><path d="M12 3 C9 8 3 11 3 16 C3 19 6 20 8 19 C9 18.5 9.5 18 10 17 C9.5 20 9 22 7 23 L17 23 C15 22 14.5 20 14 17 C14.5 18 15 18.5 16 19 C18 20 21 19 21 16 C21 11 15 8 12 3 Z"/></g><g transform="translate(112.4,99.4) scale(0.550)" fill="#6ba6c8" opacity="0.55"><path d="M12 3 C9 8 3 11 3 16 C3 19 6 20 8 19 C9 18.5 9.5 18 10 17 C9.5 20 9 22 7 23 L17 23 C15 22 14.5 20 14 17 C14.5 18 15 18.5 16 19 C18 20 21 19 21 16 C21 11 15 8 12 3 Z"/></g><g transform="translate(162.4,99.4) scale(0.550)" fill="#6ba6c8" opacity="0.55"><path d="M12 3 C9 8 3 11 3 16 C3 19 6 20 8 19 C9 18.5 9.5 18 10 17 C9.5 20 9 22 7 23 L17 23 C15 22 14.5 20 14 17 C14.5 18 15 18.5 16 19 C18 20 21 19 21 16 C21 11 15 8 12 3 Z"/></g><g transform="translate(212.4,99.4) scale(0.550)" fill="#6ba6c8" opacity="0.55"><path d="M12 3 C9 8 3 11 3 16 C3 19 6 20 8 19 C9 18.5 9.5 18 10 17 C9.5 20 9 22 7 23 L17 23 C15 22 14.5 20 14 17 C14.5 18 15 18.5 16 19 C18 20 21 19 21 16 C21 11 15 8 12 3 Z"/></g><g transform="translate(262.4,99.4) scale(0.550)" fill="#6ba6c8" opacity="0.55"><path d="M12 3 C9 8 3 11 3 16 C3 19 6 20 8 19 C9 18.5 9.5 18 10 17 C9.5 20 9 22 7 23 L17 23 C15 22 14.5 20 14 17 C14.5 18 15 18.5 16 19 C18 20 21 19 21 16 C21 11 15 8 12 3 Z"/></g><g transform="translate(312.4,99.4) scale(0.550)" fill="#6ba6c8" opacity="0.55"><path d="M12 3 C9 8 3 11 3 16 C3 19 6 20 8 19 C9 18.5 9.5 18 10 17 C9.5 20 9 22 7 23 L17 23 C15 22 14.5 20 14 17 C14.5 18 15 18.5 16 19 C18 20 21 19 21 16 C21 11 15 8 12 3 Z"/></g><g transform="translate(37.4,151.4) scale(0.550)" fill="#6ba6c8" opacity="0.55"><path d="M12 3 C9 8 3 11 3 16 C3 19 6 20 8 19 C9 18.5 9.5 18 10 17 C9.5 20 9 22 7 23 L17 23 C15 22 14.5 20 14 17 C14.5 18 15 18.5 16 19 C18 20 21 19 21 16 C21 11 15 8 12 3 Z"/></g><g transform="translate(87.4,151.4) scale(0.550)" fill="#6ba6c8" opacity="0.55"><path d="M12 3 C9 8 3 11 3 16 C3 19 6 20 8 19 C9 18.5 9.5 18 10 17 C9.5 20 9 22 7 23 L17 23 C15 22 14.5 20 14 17 C14.5 18 15 18.5 16 19 C18 20 21 19 21 16 C21 11 15 8 12 3 Z"/></g><g transform="translate(137.4,151.4) scale(0.550)" fill="#6ba6c8" opacity="0.55"><path d="M12 3 C9 8 3 11 3 16 C3 19 6 20 8 19 C9 18.5 9.5 18 10 17 C9.5 20 9 22 7 23 L17 23 C15 22 14.5 20 14 17 C14.5 18 15 18.5 16 19 C18 20 21 19 21 16 C21 11 15 8 12 3 Z"/></g><g transform="translate(187.4,151.4) scale(0.550)" fill="#6ba6c8" opacity="0.55"><path d="M12 3 C9 8 3 11 3 16 C3 19 6 20 8 19 C9 18.5 9.5 18 10 17 C9.5 20 9 22 7 23 L17 23 C15 22 14.5 20 14 17 C14.5 18 15 18.5 16 19 C18 20 21 19 21 16 C21 11 15 8 12 3 Z"/></g><g transform="translate(237.4,151.4) scale(0.550)" fill="#6ba6c8" opacity="0.55"><path d="M12 3 C9 8 3 11 3 16 C3 19 6 20 8 19 C9 18.5 9.5 18 10 17 C9.5 20 9 22 7 23 L17 23 C15 22 14.5 20 14 17 C14.5 18 15 18.5 16 19 C18 20 21 19 21 16 C21 11 15 8 12 3 Z"/></g><g transform="translate(287.4,151.4) scale(0.550)" fill="#6ba6c8" opacity="0.55"><path d="M12 3 C9 8 3 11 3 16 C3 19 6 20 8 19 C9 18.5 9.5 18 10 17 C9.5 20 9 22 7 23 L17 23 C15 22 14.5 20 14 17 C14.5 18 15 18.5 16 19 C18 20 21 19 21 16 C21 11 15 8 12 3 Z"/></g><g transform="translate(62.4,203.4) scale(0.550)" fill="#6ba6c8" opacity="0.55"><path d="M12 3 C9 8 3 11 3 16 C3 19 6 20 8 19 C9 18.5 9.5 18 10 17 C9.5 20 9 22 7 23 L17 23 C15 22 14.5 20 14 17 C14.5 18 15 18.5 16 19 C18 20 21 19 21 16 C21 11 15 8 12 3 Z"/></g><g transform="translate(112.4,203.4) scale(0.550)" fill="#6ba6c8" opacity="0.55"><path d="M12 3 C9 8 3 11 3 16 C3 19 6 20 8 19 C9 18.5 9.5 18 10 17 C9.5 20 9 22 7 23 L17 23 C15 22 14.5 20 14 17 C14.5 18 15 18.5 16 19 C18 20 21 19 21 16 C21 11 15 8 12 3 Z"/></g><g transform="translate(162.4,203.4) scale(0.550)" fill="#6ba6c8" opacity="0.55"><path d="M12 3 C9 8 3 11 3 16 C3 19 6 20 8 19 C9 18.5 9.5 18 10 17 C9.5 20 9 22 7 23 L17 23 C15 22 14.5 20 14 17 C14.5 18 15 18.5 16 19 C18 20 21 19 21 16 C21 11 15 8 12 3 Z"/></g><g transform="translate(212.4,203.4) scale(0.550)" fill="#6ba6c8" opacity="0.55"><path d="M12 3 C9 8 3 11 3 16 C3 19 6 20 8 19 C9 18.5 9.5 18 10 17 C9.5 20 9 22 7 23 L17 23 C15 22 14.5 20 14 17 C14.5 18 15 18.5 16 19 C18 20 21 19 21 16 C21 11 15 8 12 3 Z"/></g><g transform="translate(262.4,203.4) scale(0.550)" fill="#6ba6c8" opacity="0.55"><path d="M12 3 C9 8 3 11 3 16 C3 19 6 20 8 19 C9 18.5 9.5 18 10 17 C9.5 20 9 22 7 23 L17 23 C15 22 14.5 20 14 17 C14.5 18 15 18.5 16 19 C18 20 21 19 21 16 C21 11 15 8 12 3 Z"/></g><g transform="translate(312.4,203.4) scale(0.550)" fill="#6ba6c8" opacity="0.55"><path d="M12 3 C9 8 3 11 3 16 C3 19 6 20 8 19 C9 18.5 9.5 18 10 17 C9.5 20 9 22 7 23 L17 23 C15 22 14.5 20 14 17 C14.5 18 15 18.5 16 19 C18 20 21 19 21 16 C21 11 15 8 12 3 Z"/></g><g transform="translate(37.4,255.4) scale(0.550)" fill="#6ba6c8" opacity="0.55"><path d="M12 3 C9 8 3 11 3 16 C3 19 6 20 8 19 C9 18.5 9.5 18 10 17 C9.5 20 9 22 7 23 L17 23 C15 22 14.5 20 14 17 C14.5 18 15 18.5 16 19 C18 20 21 19 21 16 C21 11 15 8 12 3 Z"/></g><g transform="translate(87.4,255.4) scale(0.550)" fill="#6ba6c8" opacity="0.55"><path d="M12 3 C9 8 3 11 3 16 C3 19 6 20 8 19 C9 18.5 9.5 18 10 17 C9.5 20 9 22 7 23 L17 23 C15 22 14.5 20 14 17 C14.5 18 15 18.5 16 19 C18 20 21 19 21 16 C21 11 15 8 12 3 Z"/></g><g transform="translate(137.4,255.4) scale(0.550)" fill="#6ba6c8" opacity="0.55"><path d="M12 3 C9 8 3 11 3 16 C3 19 6 20 8 19 C9 18.5 9.5 18 10 17 C9.5 20 9 22 7 23 L17 23 C15 22 14.5 20 14 17 C14.5 18 15 18.5 16 19 C18 20 21 19 21 16 C21 11 15 8 12 3 Z"/></g><g transform="translate(187.4,255.4) scale(0.550)" fill="#6ba6c8" opacity="0.55"><path d="M12 3 C9 8 3 11 3 16 C3 19 6 20 8 19 C9 18.5 9.5 18 10 17 C9.5 20 9 22 7 23 L17 23 C15 22 14.5 20 14 17 C14.5 18 15 18.5 16 19 C18 20 21 19 21 16 C21 11 15 8 12 3 Z"/></g><g transform="translate(237.4,255.4) scale(0.550)" fill="#6ba6c8" opacity="0.55"><path d="M12 3 C9 8 3 11 3 16 C3 19 6 20 8 19 C9 18.5 9.5 18 10 17 C9.5 20 9 22 7 23 L17 23 C15 22 14.5 20 14 17 C14.5 18 15 18.5 16 19 C18 20 21 19 21 16 C21 11 15 8 12 3 Z"/></g><g transform="translate(287.4,255.4) scale(0.550)" fill="#6ba6c8" opacity="0.55"><path d="M12 3 C9 8 3 11 3 16 C3 19 6 20 8 19 C9 18.5 9.5 18 10 17 C9.5 20 9 22 7 23 L17 23 C15 22 14.5 20 14 17 C14.5 18 15 18.5 16 19 C18 20 21 19 21 16 C21 11 15 8 12 3 Z"/></g><g transform="translate(62.4,307.4) scale(0.550)" fill="#6ba6c8" opacity="0.55"><path d="M12 3 C9 8 3 11 3 16 C3 19 6 20 8 19 C9 18.5 9.5 18 10 17 C9.5 20 9 22 7 23 L17 23 C15 22 14.5 20 14 17 C14.5 18 15 18.5 16 19 C18 20 21 19 21 16 C21 11 15 8 12 3 Z"/></g><g transform="translate(112.4,307.4) scale(0.550)" fill="#6ba6c8" opacity="0.55"><path d="M12 3 C9 8 3 11 3 16 C3 19 6 20 8 19 C9 18.5 9.5 18 10 17 C9.5 20 9 22 7 23 L17 23 C15 22 14.5 20 14 17 C14.5 18 15 18.5 16 19 C18 20 21 19 21 16 C21 11 15 8 12 3 Z"/></g><g transform="translate(162.4,307.4) scale(0.550)" fill="#6ba6c8" opacity="0.55"><path d="M12 3 C9 8 3 11 3 16 C3 19 6 20 8 19 C9 18.5 9.5 18 10 17 C9.5 20 9 22 7 23 L17 23 C15 22 14.5 20 14 17 C14.5 18 15 18.5 16 19 C18 20 21 19 21 16 C21 11 15 8 12 3 Z"/></g><g transform="translate(212.4,307.4) scale(0.550)" fill="#6ba6c8" opacity="0.55"><path d="M12 3 C9 8 3 11 3 16 C3 19 6 20 8 19 C9 18.5 9.5 18 10 17 C9.5 20 9 22 7 23 L17 23 C15 22 14.5 20 14 17 C14.5 18 15 18.5 16 19 C18 20 21 19 21 16 C21 11 15 8 12 3 Z"/></g><g transform="translate(262.4,307.4) scale(0.550)" fill="#6ba6c8" opacity="0.55"><path d="M12 3 C9 8 3 11 3 16 C3 19 6 20 8 19 C9 18.5 9.5 18 10 17 C9.5 20 9 22 7 23 L17 23 C15 22 14.5 20 14 17 C14.5 18 15 18.5 16 19 C18 20 21 19 21 16 C21 11 15 8 12 3 Z"/></g><g transform="translate(312.4,307.4) scale(0.550)" fill="#6ba6c8" opacity="0.55"><path d="M12 3 C9 8 3 11 3 16 C3 19 6 20 8 19 C9 18.5 9.5 18 10 17 C9.5 20 9 22 7 23 L17 23 C15 22 14.5 20 14 17 C14.5 18 15 18.5 16 19 C18 20 21 19 21 16 C21 11 15 8 12 3 Z"/></g><g transform="translate(37.4,359.4) scale(0.550)" fill="#6ba6c8" opacity="0.55"><path d="M12 3 C9 8 3 11 3 16 C3 19 6 20 8 19 C9 18.5 9.5 18 10 17 C9.5 20 9 22 7 23 L17 23 C15 22 14.5 20 14 17 C14.5 18 15 18.5 16 19 C18 20 21 19 21 16 C21 11 15 8 12 3 Z"/></g><g transform="translate(87.4,359.4) scale(0.550)" fill="#6ba6c8" opacity="0.55"><path d="M12 3 C9 8 3 11 3 16 C3 19 6 20 8 19 C9 18.5 9.5 18 10 17 C9.5 20 9 22 7 23 L17 23 C15 22 14.5 20 14 17 C14.5 18 15 18.5 16 19 C18 20 21 19 21 16 C21 11 15 8 12 3 Z"/></g><g transform="translate(137.4,359.4) scale(0.550)" fill="#6ba6c8" opacity="0.55"><path d="M12 3 C9 8 3 11 3 16 C3 19 6 20 8 19 C9 18.5 9.5 18 10 17 C9.5 20 9 22 7 23 L17 23 C15 22 14.5 20 14 17 C14.5 18 15 18.5 16 19 C18 20 21 19 21 16 C21 11 15 8 12 3 Z"/></g><g transform="translate(187.4,359.4) scale(0.550)" fill="#6ba6c8" opacity="0.55"><path d="M12 3 C9 8 3 11 3 16 C3 19 6 20 8 19 C9 18.5 9.5 18 10 17 C9.5 20 9 22 7 23 L17 23 C15 22 14.5 20 14 17 C14.5 18 15 18.5 16 19 C18 20 21 19 21 16 C21 11 15 8 12 3 Z"/></g><g transform="translate(237.4,359.4) scale(0.550)" fill="#6ba6c8" opacity="0.55"><path d="M12 3 C9 8 3 11 3 16 C3 19 6 20 8 19 C9 18.5 9.5 18 10 17 C9.5 20 9 22 7 23 L17 23 C15 22 14.5 20 14 17 C14.5 18 15 18.5 16 19 C18 20 21 19 21 16 C21 11 15 8 12 3 Z"/></g><g transform="translate(287.4,359.4) scale(0.550)" fill="#6ba6c8" opacity="0.55"><path d="M12 3 C9 8 3 11 3 16 C3 19 6 20 8 19 C9 18.5 9.5 18 10 17 C9.5 20 9 22 7 23 L17 23 C15 22 14.5 20 14 17 C14.5 18 15 18.5 16 19 C18 20 21 19 21 16 C21 11 15 8 12 3 Z"/></g><g transform="translate(62.4,411.4) scale(0.550)" fill="#6ba6c8" opacity="0.55"><path d="M12 3 C9 8 3 11 3 16 C3 19 6 20 8 19 C9 18.5 9.5 18 10 17 C9.5 20 9 22 7 23 L17 23 C15 22 14.5 20 14 17 C14.5 18 15 18.5 16 19 C18 20 21 19 21 16 C21 11 15 8 12 3 Z"/></g><g transform="translate(112.4,411.4) scale(0.550)" fill="#6ba6c8" opacity="0.55"><path d="M12 3 C9 8 3 11 3 16 C3 19 6 20 8 19 C9 18.5 9.5 18 10 17 C9.5 20 9 22 7 23 L17 23 C15 22 14.5 20 14 17 C14.5 18 15 18.5 16 19 C18 20 21 19 21 16 C21 11 15 8 12 3 Z"/></g><g transform="translate(162.4,411.4) scale(0.550)" fill="#6ba6c8" opacity="0.55"><path d="M12 3 C9 8 3 11 3 16 C3 19 6 20 8 19 C9 18.5 9.5 18 10 17 C9.5 20 9 22 7 23 L17 23 C15 22 14.5 20 14 17 C14.5 18 15 18.5 16 19 C18 20 21 19 21 16 C21 11 15 8 12 3 Z"/></g><g transform="translate(212.4,411.4) scale(0.550)" fill="#6ba6c8" opacity="0.55"><path d="M12 3 C9 8 3 11 3 16 C3 19 6 20 8 19 C9 18.5 9.5 18 10 17 C9.5 20 9 22 7 23 L17 23 C15 22 14.5 20 14 17 C14.5 18 15 18.5 16 19 C18 20 21 19 21 16 C21 11 15 8 12 3 Z"/></g><g transform="translate(262.4,411.4) scale(0.550)" fill="#6ba6c8" opacity="0.55"><path d="M12 3 C9 8 3 11 3 16 C3 19 6 20 8 19 C9 18.5 9.5 18 10 17 C9.5 20 9 22 7 23 L17 23 C15 22 14.5 20 14 17 C14.5 18 15 18.5 16 19 C18 20 21 19 21 16 C21 11 15 8 12 3 Z"/></g><g transform="translate(312.4,411.4) scale(0.550)" fill="#6ba6c8" opacity="0.55"><path d="M12 3 C9 8 3 11 3 16 C3 19 6 20 8 19 C9 18.5 9.5 18 10 17 C9.5 20 9 22 7 23 L17 23 C15 22 14.5 20 14 17 C14.5 18 15 18.5 16 19 C18 20 21 19 21 16 C21 11 15 8 12 3 Z"/></g><rect x="16" y="16" width="328" height="472" rx="20" fill="url(#dith)" opacity="0.07"/><rect x="30" y="30" width="300" height="444" rx="14" fill="none" stroke="#16323f" stroke-width="1.4"/><text x="180" y="72" text-anchor="middle" class="ttl" font-size="20" letter-spacing="2" fill="#16323f">HOLDEM' STARES</text><circle cx="180" cy="252" r="86" fill="#f3efe2" stroke="#16323f" stroke-width="3"/><circle cx="180" cy="252" r="78" fill="none" stroke="#16323f" stroke-width="1"/><g transform="translate(117.6,189.6) scale(5.200)" fill="#21465a" opacity="1.00"><path d="M12 3 C9 8 3 11 3 16 C3 19 6 20 8 19 C9 18.5 9.5 18 10 17 C9.5 20 9 22 7 23 L17 23 C15 22 14.5 20 14 17 C14.5 18 15 18.5 16 19 C18 20 21 19 21 16 C21 11 15 8 12 3 Z"/></g><text x="180" y="448" text-anchor="middle" class="lbl" font-size="20" letter-spacing="8" fill="#16323f">&#12509;&#12540;&#12459;&#12540;</text></svg>