<svg xmlns="http://www.w3.org/2000/svg" width="360" height="504" viewBox="0 0 360 504" role="img"><defs><pattern id="dith" width="4" height="4" patternUnits="userSpaceOnUse"><rect width="4" height="4" fill="#1c180f" fill-opacity="0"/><rect width="2" height="2" fill="#1c180f"/><rect x="2" y="2" width="2" height="2" fill="#1c180f"/></pattern></defs><style>.ttl{font-family:"Arial Black",Impact,sans-serif;font-weight:bold}.lbl{font-family:Arial,Helvetica,sans-serif}.mono{font-family:"Courier New",monospace}</style><rect x="10" y="10" width="340" height="484" rx="22" fill="#8fc7e8" stroke="#3f7fa0" stroke-width="3"/><rect x="10" y="10" width="340" height="484" rx="22" fill="url(#dith)" opacity="0.08"/><rect x="26" y="26" width="308" height="452" rx="14" fill="none" stroke="#16323f" stroke-width="1.5"/><rect x="33" y="33" width="294" height="438" rx="10" fill="none" stroke="#16323f" stroke-width="0.7"/><g transform="translate(43.6,45.6) scale(0.700)" fill="#16323f" opacity="0.45"><path d="M12 3 C9 8 3 11 3 16 C3 19 6 20 8 19 C9 18.5 9.5 18 10 17 C9.5 20 9 22 7 23 L17 23 C15 22 14.5 20 14 17 C14.5 18 15 18.5 16 19 C18 20 21 19 21 16 C21 11 15 8 12 3 Z"/></g><g transform="translate(299.6,45.6) scale(0.700)" fill="#16323f" opacity="0.45"><path d="M12 3 C9 8 3 11 3 16 C3 19 6 20 8 19 C9 18.5 9.5 18 10 17 C9.5 20 9 22 7 23 L17 23 C15 22 14.5 20 14 17 C14.5 18 15 18.5 16 19 C18 20 21 19 21 16 C21 11 15 8 12 3 Z"/></g><g transform="translate(43.6,441.6) scale(0.700)" fill="#16323f" opacity="0.45"><path d="M12 3 C9 8 3 11 3 16 C3 19 6 20 8 19 C9 18.5 9.5 18 10 17 C9.5 20 9 22 7 23 L17 23 C15 22 14.5 20 14 17 C14.5 18 15 18.5 16 19 C18 20 21 19 21 16 C21 11 15 8 12 3 Z"/></g><g transform="translate(299.6,441.6) scale(0.700)" fill="#16323f" opacity="0.45"><path d="M12 3 C9 8 3 11 3 16 C3 19 6 20 8 19 C9 18.5 9.5 18 10 17 C9.5 20 9 22 7 23 L17 23 C15 22 14.5 20 14 17 C14.5 18 15 18.5 16 19 C18 20 21 19 21 16 C21 11 15 8 12 3 Z"/></g><text x="180" y="62" text-anchor="middle" class="lbl" font-size="13" letter-spacing="3" fill="#16323f">ROOM CODE</text><text x="180" y="402" text-anchor="middle" class="lbl" font-size="12" font-style="italic" fill="#16323f">Need at least 2 players to start.</text><circle cx="312" cy="62" r="15" fill="#f3efe2" stroke="#16323f" stroke-width="2"/><circle cx="312" cy="62" r="4.5" fill="none" stroke="#16323f" stroke-width="1.6"/><g transform="rotate(0 312 62)"><rect x="311" y="49" width="2" height="4" fill="#16323f"/></g><g transform="rotate(60 312 62)"><rect x="311" y="49" width="2" height="4" fill="#16323f"/></g><g transform="rotate(120 312 62)"><rect x="311" y="49" width="2" height="4" fill="#16323f"/></g><g transform="rotate(180 312 62)"><rect x="311" y="49" width="2" height="4" fill="#16323f"/></g><g transform="rotate(240 312 62)"><rect x="311" y="49" width="2" height="4" fill="#16323f"/></g><g transform="rotate(300 312 62)"><rect x="311" y="49" width="2" height="4" fill="#16323f"/></g></svg>