<svg xmlns="http://www.w3.org/2000/svg" width="240" height="240" viewBox="0 0 240 240" role="img"><defs><pattern id="dith" width="4" height="4" patternUnits="userSpaceOnUse"><rect width="4" height="4" fill="#1c180f" fill-opacity="0"/><rect width="2" height="2" fill="#1c180f"/><rect x="2" y="2" width="2" height="2" fill="#1c180f"/></pattern></defs><style>.ttl{font-family:"Arial Black",Impact,sans-serif;font-weight:bold}.lbl{font-family:Arial,Helvetica,sans-serif}.mono{font-family:"Courier New",monospace}</style><circle cx="120" cy="120" r="110" fill="#e8e2d2" stroke="#9c9482" stroke-width="4"/><g transform="rotate(0 120 120)"><rect x="108" y="11" width="24" height="26" rx="6" fill="#2a2620" opacity="0.92"/></g><g transform="rotate(60 120 120)"><rect x="108" y="11" width="24" height="26" rx="6" fill="#2a2620" opacity="0.92"/></g><g transform="rotate(120 120 120)"><rect x="108" y="11" width="24" height="26" rx="6" fill="#2a2620" opacity="0.92"/></g><g transform="rotate(180 120 120)"><rect x="108" y="11" width="24" height="26" rx="6" fill="#2a2620" opacity="0.92"/></g><g transform="rotate(240 120 120)"><rect x="108" y="11" width="24" height="26" rx="6" fill="#2a2620" opacity="0.92"/></g><g transform="rotate(300 120 120)"><rect x="108" y="11" width="24" height="26" rx="6" fill="#2a2620" opacity="0.92"/></g><circle cx="120" cy="120" r="86" fill="none" stroke="#2a2620" stroke-width="2" stroke-dasharray="2 7" opacity="0.7"/><circle cx="120" cy="120" r="74" fill="#e8e2d2" stroke="#9c9482" stroke-width="2"/><circle cx="120" cy="120" r="74" fill="url(#dith)" opacity="0.10"/><text x="120" y="66" text-anchor="middle" class="lbl" font-size="10" letter-spacing="1.5" fill="#2a2620" opacity="0.9">HOLDEM'</text><text x="120" y="182" text-anchor="middle" class="lbl" font-size="10" letter-spacing="3" fill="#2a2620" opacity="0.9">STARES</text><text x="120" y="144" text-anchor="middle" class="ttl" font-size="72" fill="#2a2620">1</text><circle cx="120" cy="120" r="110" fill="url(#dith)" opacity="0.07"/></svg>